# xmcd
#
# Track frame offsets:
# 150
# 5200
# 21342
# 34365
# 48652
# 63687
# 65087
# 80280
# 90445
# 109082
# 126705
# 137007
# 138430
# 147570
# 158210
# 171417
# 185742
# 186697
# 206492
# 222475
# 238445
# 253675
#
# Disc length: 3580 seconds
#
#
# Revision: 2
# Processed by: cddbd v1.4PL0 Copyright (c) Steve Scherf et al.
# Submitted via: FreeRIP 2.00 
#
DISCID=700dfa16
DTITLE=Barretão 2002
DYEAR=2002
DGENRE=Country
TTITLE0=Johny Barreto - Abertura
TTITLE1=Matogrosso and Matias - Firma o Gorpe
TTITLE2=Chico Rey and Paraná - Laçada Certeira
TTITLE3=Isaac Jr. - Pré-Cheque
TTITLE4=Jad and Jefferson - Como Reconquistar o Seu Amor
TTITLE5=Johny Barreto - Locução
TTITLE6=Lucas and Luan - Mexe-Mexe Que é Bom
TTITLE7=Pedro Bento and Ze da Estrada - Barretos, peão e viola
TTITLE8=Carlos Cesar and Cristiano - Vida de Peão
TTITLE9=Daniel - Mágoa de Boiadeiro
TTITLE10=Zé Antonio and Divaney - To Sortinho
TTITLE11=Johny Barreto - Locução2
TTITLE12=Carreiro Filho e Praense - Festival de Corno
TTITLE13=Trio Parada Dura - O Bicho Pegou
TTITLE14=Roni and Marcos - Até Mais Ver
TTITLE15=Gino and Geno - Linda Ciganinha
TTITLE16=J.Barreto - Locução3
TTITLE17=Dois a Um - Amor Perfeito
TTITLE18=Juliano Cesar - Cowboy Vagabundo
TTITLE19=Jean and Jefferson - O Bebum
TTITLE20=Matogrosso and Matias - Moda do Genro
TTITLE21=Banda Sela de Prata - Rei do Laço
EXTD=by Clayton
EXTT0=
EXTT1=
EXTT2=
EXTT3=
EXTT4=
EXTT5=
EXTT6=
EXTT7=
EXTT8=
EXTT9=
EXTT10=
EXTT11=
EXTT12=
EXTT13=
EXTT14=
EXTT15=
EXTT16=
EXTT17=
EXTT18=
EXTT19=
EXTT20=
EXTT21=
PLAYORDER=
